<?xml version="1.0" encoding="UTF-8"?>
<svg width="13px" height="14px" viewBox="0 0 13 14" version="1.1" xmlns="http://www.w3.org/2000/svg" xmlns:xlink="http://www.w3.org/1999/xlink">
    <title>编组</title>
    <g id="云图3.3.1" stroke="none" stroke-width="1" fill="none" fill-rule="evenodd">
        <g id="知识建模-实体定义02" transform="translate(-682.000000, -897.000000)" fill="#A0A6B1" fill-rule="nonzero">
            <g id="编组" transform="translate(241.000000, 106.000000)">
                <g id="内容" transform="translate(17.500000, 25.500000)">
                    <g id="编组-3" transform="translate(0.500000, 576.000000)">
                        <g id="编组-10" transform="translate(59.500000, 182.500000)">
                            <g id="编组-72" transform="translate(44.500000, 0.000000)">
                                <g id="编组-14" transform="translate(312.000000, 0.000000)">
                                    <g id="编组" transform="translate(7.000000, 7.000000)">
                                        <path d="M11.2681485,11.65 C11.6823621,11.65 12.0181485,11.9857864 12.0181485,12.4 C12.0181485,12.7796958 11.7359946,13.093491 11.3699191,13.1431534 L11.2681485,13.15 L1.2681485,13.15 C0.853934938,13.15 0.5181485,12.8142136 0.5181485,12.4 C0.5181485,12.0203042 0.800302382,11.706509 1.16637794,11.6568466 L1.2681485,11.65 L11.2681485,11.65 Z M6.50226506,0.548371285 L6.58638309,0.620989914 L7.43486985,1.46951268 L10.8289799,4.86361968 C11.1218726,5.15651219 11.1218735,5.6313848 10.8289818,5.92427838 L10.8289818,5.92427838 L6.16209179,10.5911984 C5.86919894,10.8840931 5.39432407,10.884094 5.10143015,10.5912003 L5.10143015,10.5912003 L1.70731715,7.19709032 C1.41442424,6.90419767 1.41442353,6.42932481 1.70731555,6.13643128 L1.70731555,6.13643128 L5.8441485,1.999317 L5.52571691,1.68164409 C5.23282535,1.38874921 5.23282804,0.913875476 5.52572291,0.620983914 C5.79199098,0.354718858 6.2086548,0.330515164 6.50226506,0.548371285 Z M10.9,7.6 C11.7,8.35816 12.1,8.95816 12.1,9.4 C12.1,10.06273 11.56273,10.6 10.9,10.6 C10.23727,10.6 9.7,10.06273 9.7,9.4 C9.7,8.95816 10.09999,8.35816 10.9,7.6 Z M6.904,3.06 L4.7771485,5.185317 L8.2901485,6.340317 L9.238,5.394 L6.904,3.06 Z" id="形状结合"></path>
                                    </g>
                                </g>
                            </g>
                        </g>
                    </g>
                </g>
            </g>
        </g>
    </g>
</svg>